<?xml version="1.0" encoding="utf-8"?>
<!-- Generator: Adobe Illustrator 27.3.1, SVG Export Plug-In . SVG Version: 6.00 Build 0)  -->
<svg version="1.1" id="Layer_1" xmlns="http://www.w3.org/2000/svg" x="0px" y="0px" viewBox="0 0 1080 1080" style="enable-background:new 0 0 1080 1080;" xml:space="preserve">
<style type="text/css">
	.st0{fill:url(#SVGID_1_);}
	.st1{display:none;fill:url(#SVGID_00000021807809168571560760000004526937226458365064_);}
</style>
<g>
	<linearGradient id="SVGID_1_" gradientUnits="userSpaceOnUse" x1="202.3348" y1="509.854" x2="878.3925" y2="509.854">
		<stop  offset="4.600640e-07" style="stop-color:#F3D4A8"/>
		<stop  offset="0.9794" style="stop-color:#CE4F2A"/>
	</linearGradient>
	<path class="st0" d="M651.47,448.81c1.72,1.61,3.44,3.22,5.16,4.83c0.93,4.44-0.69,6.12-5.25,5.47
		c-8.38-1.19-16.61-0.46-24.67,2.07c-5.1,1.6-9.89,3.82-14.31,7.08c0.33,0.61,0.55,1.11,0.84,1.55
		c14.12,21.64,20.72,45.39,19.59,71.19c-1.14,25.89-9.38,49.45-24.17,70.71c-2.23,3.21-4.59,6.32-6.88,9.48
		c-1.61,1.72-3.22,3.44-4.83,5.16c-4.45,0.92-6.13-0.71-5.47-5.26c1.23-8.54,0.44-16.92-2.2-25.12c-1.59-4.93-3.76-9.58-6.88-13.76
		c-0.38,0.13-0.61,0.19-0.81,0.29c-0.35,0.18-0.69,0.38-1.01,0.59c-21.39,13.87-44.82,20.46-70.29,19.47
		c-26.24-1.02-50.09-9.32-71.6-24.34c-3.26-2.28-6.43-4.7-9.64-7.06c-1.61-1.5-3.21-3.01-4.82-4.51c-0.9-4.46,0.71-6.12,5.26-5.47
		c10.02,1.42,19.75,0.19,29.07-3.68c3.43-1.42,6.63-3.37,10.08-5.15c-0.61-1.06-0.93-1.67-1.3-2.25
		c-30.14-46.38-22.69-102.03,4.71-141.32c2.37-3.4,4.9-6.69,7.36-10.03c1.5-1.61,3.01-3.21,4.51-4.82c4.45-0.92,6.13,0.69,5.48,5.25
		c-1.17,8.22-0.49,16.3,1.92,24.22c1.6,5.26,3.86,10.21,7.23,14.76c0.61-0.33,1.1-0.55,1.55-0.84
		c21.64-14.11,45.39-20.71,71.18-19.59c25.9,1.13,49.45,9.38,70.71,24.16C645.19,444.15,648.31,446.51,651.47,448.81z M204.3,410.51
		c-0.65,0.24-1.31,0.48-1.96,0.72c2.39,13.62,4.21,27.38,7.26,40.85c18.29,80.81,57.24,149.58,120.52,203.74
		c43.1,36.88,92.74,60.71,148.22,72.49c13.4,2.84,15.93,6.94,13.42,20.31c-6.73,35.92-22.48,67.23-47.61,93.8
		c-1.23,1.3-2.27,2.78-3.47,4.27c0.87,0.46,1.28,0.87,1.63,0.82c8.63-1.17,17.31-2.08,25.86-3.65
		c69.95-12.9,132.14-42.1,185.2-89.69c54.87-49.21,89.84-110.16,105.36-182.26c2.82-13.11,6.83-15.61,19.81-13.19
		c35.92,6.68,67.28,22.34,93.9,47.44c1.42,1.34,3.04,2.47,5.97,4.81c-1.57-10.62-2.61-19.47-4.22-28.21
		c-12.88-70.21-42.21-132.57-89.97-185.82c-49.41-55.09-110.74-89.82-183.01-105.44c-11.86-2.56-14.51-6.61-12.39-18.4
		c6.48-35.94,21.94-67.42,46.91-94.16c1.54-1.65,2.95-3.43,5.77-6.74c-10.87,1.59-19.88,2.6-28.78,4.25
		c-69.69,12.88-131.7,41.91-184.68,89.21c-55.18,49.26-90.34,110.35-105.9,182.7c-2.86,13.29-6.88,15.59-20.49,13.06
		c-31.72-5.89-59.96-19.16-84.78-39.74C212.55,418.1,208.48,414.24,204.3,410.51z"/>
	
		<linearGradient id="SVGID_00000101070696180575395620000016189505219117273533_" gradientUnits="userSpaceOnUse" x1="483.3632" y1="510.0708" x2="597.4445" y2="510.0708">
		<stop  offset="4.600640e-07" style="stop-color:#F3D4A8"/>
		<stop  offset="0.9794" style="stop-color:#CE4F2A"/>
	</linearGradient>
	<path style="display:none;fill:url(#SVGID_00000101070696180575395620000016189505219117273533_);" d="M483.37,505.8
		c-0.01-24.8,23-50.34,51.32-52.58c31.13-2.46,58.04,18.65,62.43,49.03c0.3,2.09,0.35,4.23,0.33,6.34
		c-0.09,7.67-4.61,13.15-10.83,13.23c-6.41,0.08-11.46-5.02-12.24-12.2c-0.33-3.02-0.61-6.11-1.45-9.02
		c-4.72-16.31-20.98-26.69-37.57-24.14c-17.17,2.64-29.57,17.92-28.85,35.54c0.68,16.57,14.31,30.58,31.15,32.02
		c1.17,0.1,2.37,0.01,3.53,0.18c6.19,0.9,10.92,6.14,10.91,12.02c0,5.75-5.05,10.8-11.72,10.88c-19.03,0.22-34.1-7.98-45.62-22.76
		C487,534.39,483.22,522.88,483.37,505.8z"/>
</g>
</svg>
